<svg xmlns="http://www.w3.org/2000/svg" xmlns:xlink="http://www.w3.org/1999/xlink" width="352" height="352" viewBox="0 0 352 352"><defs><clipPath id="a"><rect width="352" height="352" transform="translate(139 1182)" fill="#eee"/></clipPath></defs><g transform="translate(-139 -1182)" clip-path="url(#a)"><g transform="translate(115 1157.994)"><path d="M360,213A160,160,0,1,0,54.24,279H345.76A159.4,159.4,0,0,0,360,213Z" fill="#f0f2ff"/><line x2="312" transform="translate(44 279)" stroke-width="4" stroke="#4f8d49" stroke-linecap="round" stroke-linejoin="round" fill="none"/><line x2="10" transform="translate(26 279)" stroke-width="4" stroke="#4f8d49" stroke-linecap="round" stroke-linejoin="round" fill="none"/><line x2="10" transform="translate(364 279)" stroke-width="4" stroke="#4f8d49" stroke-linecap="round" stroke-linejoin="round" fill="none"/><path d="M188,131H328a8,8,0,0,1,8,8v78H180V139A8,8,0,0,1,188,131Z" fill="#fff" stroke="#4f8d49" stroke-linecap="round" stroke-linejoin="round" stroke-width="4"/><path d="M345.28,222a4.92,4.92,0,0,1-4.8,5H176.8a5,5,0,0,1,0-10H340.48a4.92,4.92,0,0,1,4.8,5Z" fill="#d6daff" stroke="#4f8d49" stroke-linecap="round" stroke-linejoin="round" stroke-width="4"/><path d="M223.16,163.24H220.6a2.8,2.8,0,0,1-2.96-3,2.88,2.88,0,0,1,2.96-2.96h6.16a2.8,2.8,0,0,1,2.88,3.08V185a3.24,3.24,0,1,1-6.48,0Z" fill="#4f8d49"/><path d="M243,168.28a2.6,2.6,0,1,1,5.2,0v6.28h6.28a2.6,2.6,0,0,1,0,5.2H248.2v6.28a2.6,2.6,0,0,1-5.2,0v-6.28h-6.28a2.6,2.6,0,0,1,0-5.2H243Z" fill="#4f8d49"/><path d="M265.16,163.24H262.6a2.8,2.8,0,0,1-2.92-3,2.88,2.88,0,0,1,2.92-2.96h6.16a2.8,2.8,0,0,1,2.92,3.08V185a3.28,3.28,0,1,1-6.52,0Z" fill="#4f8d49"/><path d="M296.48,169.72a2.6,2.6,0,1,1,0,5.2H278.72a2.6,2.6,0,1,1,0-5.2Zm0,9.68a2.6,2.6,0,0,1,0,5.2H278.72a2.6,2.6,0,1,1,0-5.2Z" fill="#4f8d49"/><rect width="108" height="12.04" rx="4" transform="translate(210 237)" stroke-width="4" stroke="#4f8d49" stroke-linecap="round" stroke-linejoin="round" fill="#fff"/><rect width="100" height="29.96" transform="translate(214 249.04)" fill="#fff"/><rect width="100" height="29.96" transform="translate(214 249.04)" stroke-width="4" stroke="#4f8d49" stroke-linecap="round" stroke-linejoin="round" fill="none"/><rect width="10" height="32" transform="translate(304 205)" stroke-width="4" stroke="#4f8d49" stroke-linecap="round" stroke-linejoin="round" fill="#fff"/><rect width="10" height="32" transform="translate(294 205)" stroke-width="4" stroke="#4f8d49" stroke-linecap="round" stroke-linejoin="round" fill="#fff"/><rect width="9.64" height="31.28" transform="matrix(0.916, 0.402, -0.402, 0.916, 285.146, 204.458)" stroke-width="4" stroke="#4f8d49" stroke-linecap="round" stroke-linejoin="round" fill="#d6daff"/><path d="M199,241h0l-2.88,3.44a9.08,9.08,0,0,1-16-5.88V223a36,36,0,0,0-72,0v48h14V259h44V238.56A23.2,23.2,0,0,0,189.2,262.2a23.56,23.56,0,0,0,18.12-8.52l3.16-3.76Z" fill="#fff"/><path d="M199,241h0l-2.88,3.44a9.08,9.08,0,0,1-16-5.88V223a36,36,0,0,0-72,0v48h14V259h44V238.56A23.2,23.2,0,0,0,189.2,262.2a23.56,23.56,0,0,0,18.12-8.52l3.16-3.76Z" fill="none" stroke="#4f8d49" stroke-linecap="round" stroke-linejoin="round" stroke-width="4"/><ellipse cx="40" cy="6" rx="40" ry="6" transform="translate(104 335)" fill="#f0f2ff"/><path d="M144,336.2a4.8,4.8,0,0,1-4.8,4.8H128.52a4.84,4.84,0,0,1-4.52-6l4-14h16Z" fill="#d6daff" stroke="#4f8d49" stroke-linejoin="round" stroke-width="4"/><path d="M122,278a7,7,0,0,1-14,0v-7h14Z" fill="#fff" stroke="#4f8d49" stroke-linecap="round" stroke-linejoin="round" stroke-width="4"/><path d="M136,330.32c-4.56,0-8-2.68-8-9.32h16C144,327.64,140.6,330.32,136,330.32Z" fill="#fff" stroke="#4f8d49" stroke-linecap="round" stroke-linejoin="round" stroke-width="4"/><path d="M144,336.2a4.8,4.8,0,0,0,4.8,4.8h10.68a4.84,4.84,0,0,0,4.52-6l-4-14H144Z" fill="#d6daff" stroke="#4f8d49" stroke-linejoin="round" stroke-width="4"/><path d="M152,330.32c4.56,0,8-2.68,8-9.32H144C144,327.64,147.4,330.32,152,330.32Z" fill="#fff" stroke="#4f8d49" stroke-linecap="round" stroke-linejoin="round" stroke-width="4"/><line y2="57.56" transform="translate(144 201.44)" stroke-width="4" stroke="#4f8d49" stroke-linecap="round" stroke-linejoin="round" fill="none"/><path d="M122,267V239c0-7.44-4.92-9.72-4.92-17.92" fill="none" stroke="#4f8d49" stroke-linecap="round" stroke-linejoin="round" stroke-width="4"/><path d="M166,257V238.92c0-7.44,4.92-9.72,4.92-17.92" fill="none" stroke="#4f8d49" stroke-linecap="round" stroke-linejoin="round" stroke-width="4"/><path d="M214.48,244.76l-4,5.2L199.12,241l4-5.2a7.24,7.24,0,0,1,10.16-1.2h0A7.24,7.24,0,0,1,214.48,244.76Z" fill="#fff" stroke="#4f8d49" stroke-linecap="round" stroke-linejoin="round" stroke-width="4"/><line y1="41.64" x2="38.4" transform="translate(209.56 199.88)" stroke-width="4" stroke="#4f8d49" stroke-linecap="round" stroke-linejoin="round" fill="none"/><path d="M122,259l6,62h32l6-62Z" fill="#d6daff" stroke="#4f8d49" stroke-linejoin="round" stroke-width="4"/><path d="M122,259l6,62h32l6-62Z" fill="none" stroke="#4f8d49" stroke-linejoin="round" stroke-width="4"/><line y1="45.8" transform="translate(144 275.2)" stroke-width="4" stroke="#4f8d49" stroke-linecap="round" stroke-linejoin="round" fill="none"/><path d="M172,155a4.92,4.92,0,0,0-4-4.8V147a24,24,0,0,0-48,0v3.2a4.92,4.92,0,0,0-4,4.8,5,5,0,0,0,4.52,5,24,24,0,0,0,46.96,0A5,5,0,0,0,172,155Z" fill="#fff" stroke="#4f8d49" stroke-linecap="round" stroke-linejoin="round" stroke-width="4"/><circle cx="3" cy="3" r="3" transform="translate(128 155)" fill="#d6daff"/><circle cx="3" cy="3" r="3" transform="translate(154 155)" fill="#d6daff"/><path d="M154.8,151a3.4,3.4,0,0,0-4.8,0" fill="none" stroke="#4f8d49" stroke-linecap="round" stroke-linejoin="round" stroke-width="4"/><path d="M133.2,151a3.4,3.4,0,0,1,4.8,0" fill="none" stroke="#4f8d49" stroke-linecap="round" stroke-linejoin="round" stroke-width="4"/><path d="M150,165a10,10,0,0,1-12,0" fill="none" stroke="#4f8d49" stroke-linecap="round" stroke-linejoin="round" stroke-width="4"/><path d="M176.8,153.4c-5.04-15.16-14.52-36-32.8-36.64-18.28.52-27.76,21.48-32.8,36.64A24,24,0,0,0,124,182.72L135.16,188a33.32,33.32,0,0,0-12,5.92c2.68,8,4.28,18.88,20.96,19.2,16.68-.32,18.28-11.2,20.96-19.2a33.32,33.32,0,0,0-12-5.92L164,182.72a24,24,0,0,0,12.8-29.32ZM144,179.28c-13.2-.32-19.04-10.56-22.24-16.84-4-7.6,8.88-28,22.24-28.84,13.36.72,26.12,21.24,22.24,28.84C163.04,168.72,157.2,178.96,144,179.28Z" fill="#fff"/><path d="M144,179.28c-13.2-.32-19.04-10.56-22.24-16.84-4-7.6,8.88-28,22.24-28.84,13.36.72,26.12,21.24,22.24,28.84C163.04,168.72,157.2,178.96,144,179.28Z" fill="none" stroke="#4f8d49" stroke-linecap="round" stroke-linejoin="round" stroke-width="4"/><path d="M134.76,198.56a19,19,0,0,0,18.48,0" fill="none" stroke="#4f8d49" stroke-linecap="round" stroke-linejoin="round" stroke-width="4"/><path d="M176.8,153.4c-5.04-15.16-14.52-36-32.8-36.64-18.28.52-27.76,21.48-32.8,36.64A24,24,0,0,0,124,182.72L135.16,188a33.32,33.32,0,0,0-12,5.92c2.68,8,4.28,18.88,20.96,19.2,16.68-.32,18.28-11.2,20.96-19.2a33.32,33.32,0,0,0-12-5.92L164,182.72a24,24,0,0,0,12.8-29.32Z" fill="none" stroke="#4f8d49" stroke-linecap="round" stroke-linejoin="round" stroke-width="4"/></g></g></svg>