<svg xmlns="http://www.w3.org/2000/svg" xmlns:xlink="http://www.w3.org/1999/xlink" width="352" height="352" viewBox="0 0 352 352"><defs><clipPath id="a"><rect width="352" height="352" transform="translate(875 1182)" fill="#eee"/></clipPath></defs><g transform="translate(-875 -1182)" clip-path="url(#a)"><g transform="translate(866.17 1175.609)"><path d="M319.189,200.7A147.79,147.79,0,1,0,36.947,261.662H306A146.792,146.792,0,0,0,319.189,200.7Z" fill="#f0f2ff"/><line x2="288.19" transform="translate(27.304 261.662)" stroke-width="3.695" stroke="#4f8d49" stroke-linecap="round" stroke-linejoin="round" fill="none"/><line x2="9.237" transform="translate(10.678 261.662)" stroke-width="3.695" stroke="#4f8d49" stroke-linecap="round" stroke-linejoin="round" fill="none"/><line x2="9.237" transform="translate(322.884 261.662)" stroke-width="3.695" stroke="#4f8d49" stroke-linecap="round" stroke-linejoin="round" fill="none"/><ellipse cx="119.931" cy="5.542" rx="119.931" ry="5.542" transform="translate(57.158 308.474)" fill="#f0f2ff"/><path d="M275.406,305.3a10.863,10.863,0,0,1,7.648-3.1H284.9a11.084,11.084,0,0,1,7.389,2.845V244.925H244.259v60.113a11.084,11.084,0,0,1,7.39-2.845H253.5a11.084,11.084,0,0,1,7.685,3.1l1.367-38.2a5.764,5.764,0,0,1,11.491,0Z" fill="#d6daff"/><path d="M294.138,147.014a4.544,4.544,0,0,0-3.695-4.434v-2.956a22.168,22.168,0,1,0-44.337,0v2.956a4.545,4.545,0,0,0,.48,8.9,22.168,22.168,0,0,0,43.413,0,4.618,4.618,0,0,0,4.138-4.471Z" fill="#fff" stroke="#4f8d49" stroke-linecap="round" stroke-linejoin="round" stroke-width="3.695"/><path d="M259.962,139.624a2.771,2.771,0,1,0,2.771,2.771A2.771,2.771,0,0,0,259.962,139.624Z" fill="#4f8d49"/><path d="M276.588,139.624a2.771,2.771,0,1,0,2.771,2.771A2.771,2.771,0,0,0,276.588,139.624Z" fill="#4f8d49"/><circle cx="2.771" cy="2.771" r="2.771" transform="translate(253.496 147.014)" fill="#d6daff"/><circle cx="2.771" cy="2.771" r="2.771" transform="translate(277.512 147.014)" fill="#d6daff"/><path d="M291.294,313.277a3.695,3.695,0,0,0,3.325-5.357,11.084,11.084,0,0,0-9.717-5.727h-1.847a11.084,11.084,0,0,0-9.643,5.727,3.695,3.695,0,0,0,3.288,5.357Z" fill="#fff" stroke="#4f8d49" stroke-linecap="round" stroke-linejoin="round" stroke-width="3.695"/><path d="M275.406,305.3a10.863,10.863,0,0,1,7.648-3.1H284.9a11.084,11.084,0,0,1,7.389,2.845V244.925H244.259v60.113a11.084,11.084,0,0,1,7.39-2.845H253.5a11.084,11.084,0,0,1,7.685,3.1l1.367-38.2a5.764,5.764,0,0,1,11.491,0Z" fill="none" stroke="#4f8d49" stroke-linecap="round" stroke-linejoin="round" stroke-width="3.695"/><path d="M259.888,313.277a3.695,3.695,0,0,0,3.325-5.357,11.084,11.084,0,0,0-9.717-5.727h-1.847a11.084,11.084,0,0,0-9.717,5.727,3.695,3.695,0,0,0,3.325,5.357Z" fill="#fff" stroke="#4f8d49" stroke-linecap="round" stroke-linejoin="round" stroke-width="3.695"/><path d="M244.259,244.925H229.48v9.237a7.389,7.389,0,0,0,14.779,0Z" fill="#fff" stroke="#4f8d49" stroke-linecap="round" stroke-linejoin="round" stroke-width="3.695"/><path d="M252.351,168.924a22.612,22.612,0,0,0,3.177,8.9l.443.739c3.436,5.173,7.02,9.569,9.459,12.636a3.695,3.695,0,0,0,5.69,0c2.439-3.067,6.022-7.389,9.459-12.636l.48-.739a22.575,22.575,0,0,0,3.141-8.9,81.283,81.283,0,0,0,.7-10.826v-6.614l-12.784-3.177a15.038,15.038,0,0,0-7.685,0l-12.784,3.177v6.651a81.288,81.288,0,0,0,.7,10.789Z" fill="#fff" stroke="#4f8d49" stroke-linecap="round" stroke-linejoin="round" stroke-width="3.695"/><path d="M251.8,163.012s3.695,6.17,16.479,4.323" fill="none" stroke="#4f8d49" stroke-linecap="round" stroke-linejoin="round" stroke-width="3.695"/><path d="M282.168,174.577s-3.88,3.695-13.892,3.695" fill="none" stroke="#4f8d49" stroke-linecap="round" stroke-linejoin="round" stroke-width="3.695"/><path d="M270.123,159.945s9.237,0,12.932-3.695" fill="none" stroke="#4f8d49" stroke-linecap="round" stroke-linejoin="round" stroke-width="3.695"/><path d="M229.48,244.925h62.811V196.893c6.318,1.663,36.947-10.419,36.947-38.795v-1.847a7.389,7.389,0,1,0-14.779,0V158.1a22.168,22.168,0,0,1-22.168,22.168h-3.4a100.979,100.979,0,0,0,5.247-32.107V135.93a25.863,25.863,0,1,0-51.726,0v12.23a101.311,101.311,0,0,0,5.875,33.955l-.259.185a36.4,36.4,0,0,0-7.389,5.985,38.462,38.462,0,0,0-11.084,27.082v29.558ZM284.9,158.1a81.283,81.283,0,0,1-.7,10.826,22.575,22.575,0,0,1-3.141,8.9l-.48.739c-3.436,5.173-7.02,9.569-9.459,12.636a3.695,3.695,0,0,1-5.69,0c-2.439-3.067-6.022-7.389-9.459-12.636l-.443-.739a22.612,22.612,0,0,1-3.177-8.9,81.285,81.285,0,0,1-.7-10.826v-12.23a17.107,17.107,0,0,1,15.038-17.254A16.626,16.626,0,0,1,284.9,145.166Z" fill="#d6daff"/><path d="M229.48,244.925h62.811V196.893c6.318,1.663,36.947-10.419,36.947-38.795v-1.847a7.389,7.389,0,1,0-14.779,0V158.1a22.168,22.168,0,0,1-22.168,22.168h-3.4a100.979,100.979,0,0,0,5.247-32.107V135.93a25.863,25.863,0,1,0-51.726,0v12.23a101.311,101.311,0,0,0,5.875,33.955l-.259.185a36.4,36.4,0,0,0-7.389,5.985,38.462,38.462,0,0,0-11.084,27.082v29.558ZM284.9,158.1a81.283,81.283,0,0,1-.7,10.826,22.575,22.575,0,0,1-3.141,8.9l-.48.739c-3.436,5.173-7.02,9.569-9.459,12.636a3.695,3.695,0,0,1-5.69,0c-2.439-3.067-6.022-7.389-9.459-12.636l-.443-.739a22.612,22.612,0,0,1-3.177-8.9,81.285,81.285,0,0,1-.7-10.826v-12.23a17.107,17.107,0,0,1,15.038-17.254A16.626,16.626,0,0,1,284.9,145.166Z" fill="none" stroke="#4f8d49" stroke-linecap="round" stroke-linejoin="round" stroke-width="3.695"/><line y2="36.947" transform="translate(244.259 207.977)" stroke-width="3.695" stroke="#4f8d49" stroke-linecap="round" stroke-linejoin="round" fill="none"/><path d="M312.649,181.744,306,178.493l35.987-85.2a8.781,8.781,0,1,1,15.7,7.833Z" fill="#fff" stroke="#4f8d49" stroke-linecap="round" stroke-linejoin="round" stroke-width="3.695"/><path d="M317.748,180.045a3.7,3.7,0,0,1-4.914,1.7l-6.651-3.251a3.7,3.7,0,0,1,3.251-6.651l6.614,3.251a3.695,3.695,0,0,1,1.7,4.951Z" fill="#fff" stroke="#4f8d49" stroke-linecap="round" stroke-linejoin="round" stroke-width="3.695"/><path d="M325.137,149.046a6.429,6.429,0,0,0-9.274,3.325,6.651,6.651,0,0,0,3.1,8.018l2.106,1.256a3.695,3.695,0,0,0,5.1-1.4l2.7-4.8a3.7,3.7,0,0,0-1.33-5.025Z" fill="#fff" stroke="#4f8d49" stroke-linecap="round" stroke-linejoin="round" stroke-width="3.695"/><path d="M225.9,147.125a6.5,6.5,0,0,1,6.466,6.466v7.389a28.671,28.671,0,0,1-28.634,28.634h-8.313v55.421H147.383V185.55a36.948,36.948,0,0,1,24.016-8.867h32.329a15.74,15.74,0,0,0,15.7-15.7V153.59A6.5,6.5,0,0,1,225.9,147.125Z" fill="#fff" stroke="#4f8d49" stroke-linecap="round" stroke-linejoin="round" stroke-width="3.695"/><path d="M194.417,313.388a3.695,3.695,0,0,0,3.325-5.357,11.084,11.084,0,0,0-9.717-5.727h-1.847a11.084,11.084,0,0,0-9.717,5.727,3.695,3.695,0,0,0,3.325,5.357Z" fill="#fff" stroke="#4f8d49" stroke-linecap="round" stroke-linejoin="round" stroke-width="3.695"/><path d="M197.262,147.125a4.581,4.581,0,0,0-3.695-4.434v-2.956a22.168,22.168,0,0,0-44.337,0v2.956a4.508,4.508,0,0,0,.443,8.793,22.168,22.168,0,0,0,43.413,0,4.581,4.581,0,0,0,4.175-4.36Z" fill="#fff" stroke="#4f8d49" stroke-linecap="round" stroke-linejoin="round" stroke-width="3.695"/><path d="M163.086,139.735a2.771,2.771,0,1,0,2.771,2.771A2.771,2.771,0,0,0,163.086,139.735Z" fill="#4f8d49"/><path d="M179.712,139.735a2.771,2.771,0,1,0,2.771,2.771A2.771,2.771,0,0,0,179.712,139.735Z" fill="#4f8d49"/><circle cx="2.771" cy="2.771" r="2.771" transform="translate(156.62 147.125)" fill="#d6daff"/><circle cx="2.771" cy="2.771" r="2.771" transform="translate(180.636 147.125)" fill="#d6daff"/><path d="M165.857,156.509a9.939,9.939,0,0,0,11.084,0" fill="none" stroke="#4f8d49" stroke-linecap="round" stroke-linejoin="round" stroke-width="3.695"/><path d="M178.493,305.407a11.084,11.084,0,0,1,7.685-3.1h1.847a11.084,11.084,0,0,1,7.39,2.845V245.035H147.383v60.113a11.084,11.084,0,0,1,7.389-2.845h1.847a11.084,11.084,0,0,1,7.685,3.1l1.33-38.2a5.764,5.764,0,0,1,11.491,0Z" fill="#d6daff"/><path d="M163.012,313.388a3.695,3.695,0,0,0,3.251-5.357,11.084,11.084,0,0,0-9.68-5.727h-1.847a11.084,11.084,0,0,0-9.717,5.727,3.695,3.695,0,0,0,3.325,5.357Z" fill="#fff" stroke="#4f8d49" stroke-linecap="round" stroke-linejoin="round" stroke-width="3.695"/><path d="M195.415,176.683v68.353H147.383V185.55a36.948,36.948,0,0,1,13.079-7.2,11.115,11.115,0,0,0,22.168-1.663Z" fill="#fff" stroke="#4f8d49" stroke-linecap="round" stroke-linejoin="round" stroke-width="3.695"/><path d="M149.231,152.667c0,14.779,13.19,30.962,19.287,38.61a3.695,3.695,0,0,0,5.764,0c6.059-7.648,19.287-23.72,19.287-38.61l-18.474-4.655a14.778,14.778,0,0,0-7.168,0Z" fill="#d6daff" stroke="#4f8d49" stroke-linecap="round" stroke-linejoin="round" stroke-width="3.695"/><path d="M171.4,113.872a25.863,25.863,0,0,0-25.863,25.863v5.542l.776-.406a3.7,3.7,0,0,1,2.7-1.441,18.917,18.917,0,0,0,8.313-8.683,7.389,7.389,0,0,1,6.687-4.249h14.779a7.389,7.389,0,0,1,6.577,4.027,26.159,26.159,0,0,0,6.429,8.055l1.108.924a2.032,2.032,0,0,1,.665,0,3.7,3.7,0,0,1,3.695,3.695v-7.389A25.863,25.863,0,0,0,171.4,113.872Z" fill="#fff" stroke="#4f8d49" stroke-linecap="round" stroke-linejoin="round" stroke-width="3.695"/><path d="M150.08,159.576a25.272,25.272,0,0,0,21.319,7.87" fill="none" stroke="#4f8d49" stroke-linecap="round" stroke-linejoin="round" stroke-width="3.695"/><path d="M186.88,173.653a24.016,24.016,0,0,1-15.481,5.025" fill="none" stroke="#4f8d49" stroke-linecap="round" stroke-linejoin="round" stroke-width="3.695"/><path d="M173.246,160.056s9.237,0,12.932-3.695" fill="none" stroke="#4f8d49" stroke-linecap="round" stroke-linejoin="round" stroke-width="3.695"/><path d="M178.493,305.407a11.084,11.084,0,0,1,7.685-3.1h1.847a11.084,11.084,0,0,1,7.39,2.845V245.035H147.383v60.113a11.084,11.084,0,0,1,7.389-2.845h1.847a11.084,11.084,0,0,1,7.685,3.1l1.33-38.2a5.764,5.764,0,0,1,11.491,0Z" fill="none" stroke="#4f8d49" stroke-linecap="round" stroke-linejoin="round" stroke-width="3.695"/><path d="M153.258,247.548a19.619,19.619,0,0,1-5.875-13.929V185.587a36.948,36.948,0,0,0-12.932,28.08v19.915a31.258,31.258,0,0,0,10.013,22.907,3.7,3.7,0,0,0,5.136,0l3.695-3.695a3.695,3.695,0,0,0-.037-5.247Z" fill="#fff" stroke="#4f8d49" stroke-linecap="round" stroke-linejoin="round" stroke-width="3.695"/><path d="M215,116.865l-6.8,2.882,22.168,52.022a3.7,3.7,0,1,0,6.8-2.919Z" fill="#d6daff" stroke="#4f8d49" stroke-linecap="round" stroke-linejoin="round" stroke-width="3.695"/><rect width="77.442" height="60.224" rx="7.389" transform="translate(152.468 78.045) rotate(-23.11)" fill="#d6daff"/><rect width="77.442" height="60.224" rx="7.389" transform="translate(152.468 78.045) rotate(-23.11)" stroke-width="3.695" stroke="#4f8d49" stroke-linecap="round" stroke-linejoin="round" fill="none"/><path d="M214.923,81.8a17.254,17.254,0,0,0-24.127-8.35,17.7,17.7,0,0,0-7.389,22.538l1.441,3.436a3.7,3.7,0,0,0,2.734,2.18l5.69,1.071,2.771,6.5a3.7,3.7,0,0,0,4.84,1.921l13.005-5.542a3.7,3.7,0,0,0,1.921-4.84l-2.623-6.5,3.177-4.84a3.7,3.7,0,0,0,.3-3.473Z" fill="#fff" stroke="#4f8d49" stroke-linecap="round" stroke-linejoin="round" stroke-width="3.695"/><path d="M192.311,86.974a2.143,2.143,0,0,0,0,4.286,1.626,1.626,0,0,0,.813-.185,2.143,2.143,0,0,0-.813-4.1Z" fill="#4f8d49"/><path d="M204.171,81.876a2.365,2.365,0,0,0-.85.185,2.18,2.18,0,0,0-1.145,2.808,2.143,2.143,0,0,0,2,1.33,2.364,2.364,0,0,0,.85,0,2.18,2.18,0,0,0,1.145-2.808,2.217,2.217,0,0,0-2-1.33Z" fill="#4f8d49"/><line x2="0.85" y2="1.958" transform="translate(200.772 92.516)" stroke-width="3.695" stroke="#4f8d49" stroke-linecap="round" stroke-linejoin="round" fill="none"/><line x2="2.549" y2="5.949" transform="translate(201.031 104.081)" stroke-width="3.695" stroke="#4f8d49" stroke-linecap="round" stroke-linejoin="round" fill="none"/><line x2="2.549" y2="5.949" transform="translate(208.938 100.719)" stroke-width="3.695" stroke="#4f8d49" stroke-linecap="round" stroke-linejoin="round" fill="none"/><path d="M223.68,143.8a6.466,6.466,0,0,0-3.436,9.274,6.651,6.651,0,0,0,8.128,2.771l2.328-.813a3.695,3.695,0,0,0,2.217-4.766L231,145.056a3.7,3.7,0,0,0-4.729-2.18Z" fill="#fff" stroke="#4f8d49" stroke-linecap="round" stroke-linejoin="round" stroke-width="3.695"/><path d="M111.064,185.55a36.948,36.948,0,0,0-24.016-8.867H56.567a15.7,15.7,0,0,1-9.422-3.03l-7.131,10.789a28.412,28.412,0,0,0,16.552,5.283h6.466v55.421h48.032V221.13H124v-7.389a36.947,36.947,0,0,0-12.932-28.191Z" fill="#d6daff"/><path d="M111.064,185.55a36.948,36.948,0,0,0-24.016-8.867H56.567a15.7,15.7,0,0,1-9.422-3.03l-7.131,10.789a28.412,28.412,0,0,0,16.552,5.283h6.466v55.421h48.032V221.13H124v-7.389a36.947,36.947,0,0,0-12.932-28.191Z" fill="none" stroke="#4f8d49" stroke-linecap="round" stroke-linejoin="round" stroke-width="3.695"/><path d="M112.911,139.735a25.863,25.863,0,0,0-51.726,0v3.695a25.863,25.863,0,1,0,51.726,0Z" fill="#d6daff"/><path d="M112.911,139.735a25.863,25.863,0,0,0-51.726,0v3.695a25.863,25.863,0,1,0,51.726,0Z" fill="none" stroke="#4f8d49" stroke-linecap="round" stroke-linejoin="round" stroke-width="3.695"/><path d="M110.066,313.388a3.695,3.695,0,0,0,3.288-5.357,11.084,11.084,0,0,0-9.68-5.727h-1.847a11.084,11.084,0,0,0-9.717,5.727,3.695,3.695,0,0,0,3.325,5.357Z" fill="#fff" stroke="#4f8d49" stroke-linecap="round" stroke-linejoin="round" stroke-width="3.695"/><path d="M94.142,305.371a11.084,11.084,0,0,1,7.685-3.067h1.847a11.084,11.084,0,0,1,7.389,2.808V245.035H63.032v60.077a11.084,11.084,0,0,1,7.389-2.808h1.847a11.084,11.084,0,0,1,7.685,3.1l1.33-38.2a5.764,5.764,0,0,1,11.491,0Z" fill="#d6daff"/><path d="M78.624,313.388a3.695,3.695,0,0,0,3.325-5.357,11.084,11.084,0,0,0-9.717-5.727H70.385a11.084,11.084,0,0,0-9.68,5.727,3.695,3.695,0,0,0,3.288,5.357Z" fill="#fff" stroke="#4f8d49" stroke-linecap="round" stroke-linejoin="round" stroke-width="3.695"/><path d="M94.142,305.371a11.084,11.084,0,0,1,7.685-3.067h1.847a11.084,11.084,0,0,1,7.389,2.808V245.035H63.032v60.077a11.084,11.084,0,0,1,7.389-2.808h1.847a11.084,11.084,0,0,1,7.685,3.1l1.33-38.2a5.764,5.764,0,0,1,11.491,0Z" fill="none" stroke="#4f8d49" stroke-linecap="round" stroke-linejoin="round" stroke-width="3.695"/><ellipse cx="25.863" cy="8.313" rx="25.863" ry="8.313" transform="translate(61.185 134.193)" stroke-width="3.695" stroke="#4f8d49" stroke-linecap="round" stroke-linejoin="round" fill="#fff"/><path d="M78.7,139.735a2.771,2.771,0,1,0,2.771,2.771A2.771,2.771,0,0,0,78.7,139.735Z" fill="#4f8d49"/><path d="M95.324,139.735a2.771,2.771,0,1,0,2.771,2.771,2.771,2.771,0,0,0-2.771-2.771Z" fill="#4f8d49"/><path d="M117.53,261.662A6.5,6.5,0,0,0,124,255.2V221.02H111.064V255.2a6.466,6.466,0,0,0,6.466,6.466Z" fill="#fff" stroke="#4f8d49" stroke-linecap="round" stroke-linejoin="round" stroke-width="3.695"/><path d="M40.864,160.98V153.59a7.131,7.131,0,0,0-.3-1.81h0v-.665a4.4,4.4,0,0,0,0-1.958,6.059,6.059,0,0,0-3.362-4.729l-1-.48-2.291-.85a3.695,3.695,0,0,0-4.766,2.18l-1.921,5.136h0a3.7,3.7,0,0,0,.48,3.436v7.242a28.634,28.634,0,0,0,12.082,23.351l7.389-10.789a15.592,15.592,0,0,1-6.318-12.673Z" fill="#fff" stroke="#4f8d49" stroke-linecap="round" stroke-linejoin="round" stroke-width="3.695"/><path d="M87.048,187.767a11.084,11.084,0,0,0,11.084-9.422,36.947,36.947,0,0,0-11.084-1.663H75.964a11.084,11.084,0,0,0,11.084,11.084Z" fill="#fff" stroke="#4f8d49" stroke-linecap="round" stroke-linejoin="round" stroke-width="3.695"/><line y1="12.932" transform="translate(111.064 208.088)" stroke-width="3.695" stroke="#4f8d49" stroke-linecap="round" stroke-linejoin="round" fill="none"/><path d="M62.293,96.063a11.084,11.084,0,0,1-15.444,6.687A11.491,11.491,0,0,1,41.529,88.3,20.21,20.21,0,0,1,55.938,75.3,1.847,1.847,0,0,1,57.6,78.513a16,16,0,0,0-6.577,10.161c1.921,1.884,4.323,1.441,7.057-.7a1.773,1.773,0,0,1,2.549.369,8.461,8.461,0,0,1,1.663,7.722Z" fill="#fff" stroke="#4f8d49" stroke-linecap="round" stroke-linejoin="round" stroke-width="3.695"/><path d="M48.438,103.453a10.2,10.2,0,0,1-3.325-1.737L22.944,172.951a3.7,3.7,0,0,0,2.512,4.4h0a3.7,3.7,0,0,0,4.618-2.439l22.168-71.235a9.865,9.865,0,0,1-3.806-.222Z" fill="#d6daff" stroke="#4f8d49" stroke-linecap="round" stroke-linejoin="round" stroke-width="3.695"/><path d="M32.07,155.992a6.466,6.466,0,0,0,8.572-4.766,6.724,6.724,0,0,0-4.36-7.389l-2.291-.887a3.695,3.695,0,0,0-4.8,2.18L27.341,150.3a3.695,3.695,0,0,0,2.217,4.877Z" fill="#fff" stroke="#4f8d49" stroke-linecap="round" stroke-linejoin="round" stroke-width="3.695"/><rect width="9.237" height="14.779" rx="3.695" transform="translate(105.522 270.899)" stroke-width="3.695" stroke="#4f8d49" stroke-linecap="round" stroke-linejoin="round" fill="#d6daff"/><rect width="9.237" height="14.779" rx="3.695" transform="translate(59.338 270.899)" stroke-width="3.695" stroke="#4f8d49" stroke-linecap="round" stroke-linejoin="round" fill="#d6daff"/></g></g></svg>