<svg xmlns="http://www.w3.org/2000/svg" width="352" height="352"><defs><clipPath id="a"><path transform="translate(139 1182)" fill="#eee" d="M0 0h352v352H0z"/></clipPath></defs><g transform="translate(-139 -1182)" clip-path="url(#a)"><g transform="translate(115 1157.994)"><path d="M360 213a160 160 0 1 0-305.76 66h291.52A159.4 159.4 0 0 0 360 213z" fill="#f0f2ff"/><path stroke-width="4" stroke="#4f8d49" stroke-linecap="round" stroke-linejoin="round" fill="none" d="M44 279h312m-330 0h10m328 0h10"/><path d="M188 131h140a8 8 0 0 1 8 8v78H180v-78a8 8 0 0 1 8-8z" fill="#fff" stroke="#4f8d49" stroke-linecap="round" stroke-linejoin="round" stroke-width="4"/><path d="M345.28 222a4.92 4.92 0 0 1-4.8 5H176.8a5 5 0 0 1 0-10h163.68a4.92 4.92 0 0 1 4.8 5z" fill="#d6daff" stroke="#4f8d49" stroke-linecap="round" stroke-linejoin="round" stroke-width="4"/><path d="M223.16 163.24h-2.56a2.8 2.8 0 0 1-2.96-3 2.88 2.88 0 0 1 2.96-2.96h6.16a2.8 2.8 0 0 1 2.88 3.08V185a3.24 3.24 0 1 1-6.48 0zm19.84 5.04a2.6 2.6 0 1 1 5.2 0v6.28h6.28a2.6 2.6 0 0 1 0 5.2h-6.28v6.28a2.6 2.6 0 0 1-5.2 0v-6.28h-6.28a2.6 2.6 0 0 1 0-5.2H243zm22.16-5.04h-2.56a2.8 2.8 0 0 1-2.92-3 2.88 2.88 0 0 1 2.92-2.96h6.16a2.8 2.8 0 0 1 2.92 3.08V185a3.28 3.28 0 1 1-6.52 0zm31.32 6.48a2.6 2.6 0 1 1 0 5.2h-17.76a2.6 2.6 0 1 1 0-5.2zm0 9.68a2.6 2.6 0 0 1 0 5.2h-17.76a2.6 2.6 0 1 1 0-5.2z" fill="#4f8d49"/><rect width="108" height="12.04" rx="4" transform="translate(210 237)" stroke-width="4" stroke="#4f8d49" stroke-linecap="round" stroke-linejoin="round" fill="#fff"/><path fill="#fff" d="M214 249.04h100V279H214z"/><path stroke-width="4" stroke="#4f8d49" stroke-linecap="round" stroke-linejoin="round" fill="none" d="M214 249.04h100V279H214z"/><path stroke-width="4" stroke="#4f8d49" stroke-linecap="round" stroke-linejoin="round" fill="#fff" d="M304 205h10v32h-10zm-10 0h10v32h-10z"/><path stroke-width="4.001" stroke="#4f8d49" stroke-linecap="round" stroke-linejoin="round" fill="#d6daff" d="M285.146 204.458l8.83 3.875-12.574 28.653-8.83-3.876z"/><path d="M199 241l-2.88 3.44a9.08 9.08 0 0 1-16-5.88V223a36 36 0 0 0-72 0v48h14v-12h44v-20.44a23.2 23.2 0 0 0 23.08 23.64 23.56 23.56 0 0 0 18.12-8.52l3.16-3.76z" fill="#fff"/><path d="M199 241h0l-2.88 3.44a9.08 9.08 0 0 1-16-5.88V223a36 36 0 0 0-72 0v48h14v-12h44v-20.44a23.2 23.2 0 0 0 23.08 23.64 23.56 23.56 0 0 0 18.12-8.52l3.16-3.76z" fill="none" stroke="#4f8d49" stroke-linecap="round" stroke-linejoin="round" stroke-width="4"/><ellipse cx="40" cy="6" rx="40" ry="6" transform="translate(104 335)" fill="#f0f2ff"/><path d="M144 336.2a4.8 4.8 0 0 1-4.8 4.8h-10.68a4.84 4.84 0 0 1-4.52-6l4-14h16z" fill="#d6daff" stroke="#4f8d49" stroke-linejoin="round" stroke-width="4"/><path d="M122 278a7 7 0 0 1-14 0v-7h14zm14 52.32c-4.56 0-8-2.68-8-9.32h16c0 6.64-3.4 9.32-8 9.32z" fill="#fff" stroke="#4f8d49" stroke-linecap="round" stroke-linejoin="round" stroke-width="4"/><path d="M144 336.2a4.8 4.8 0 0 0 4.8 4.8h10.68a4.84 4.84 0 0 0 4.52-6l-4-14h-16z" fill="#d6daff" stroke="#4f8d49" stroke-linejoin="round" stroke-width="4"/><path d="M152 330.32c4.56 0 8-2.68 8-9.32h-16c0 6.64 3.4 9.32 8 9.32z" fill="#fff" stroke="#4f8d49" stroke-linecap="round" stroke-linejoin="round" stroke-width="4"/><path stroke-width="4" stroke="#4f8d49" stroke-linecap="round" stroke-linejoin="round" fill="none" d="M144 201.44V259m-22 8v-28c0-7.44-4.92-9.72-4.92-17.92M166 257v-18.08c0-7.44 4.92-9.72 4.92-17.92"/><path d="M214.48 244.76l-4 5.2-11.36-8.96 4-5.2a7.24 7.24 0 0 1 10.16-1.2h0a7.24 7.24 0 0 1 1.2 10.16z" fill="#fff" stroke="#4f8d49" stroke-linecap="round" stroke-linejoin="round" stroke-width="4"/><path stroke-width="4" stroke="#4f8d49" stroke-linecap="round" stroke-linejoin="round" fill="none" d="M209.56 241.52l38.4-41.64"/><path d="M122 259l6 62h32l6-62z" fill="#d6daff" stroke="#4f8d49" stroke-linejoin="round" stroke-width="4"/><path d="M122 259l6 62h32l6-62z" fill="none" stroke="#4f8d49" stroke-linejoin="round" stroke-width="4"/><path stroke-width="4" stroke="#4f8d49" stroke-linecap="round" stroke-linejoin="round" fill="none" d="M144 321v-45.8"/><path d="M172 155a4.92 4.92 0 0 0-4-4.8V147a24 24 0 0 0-48 0v3.2a4.92 4.92 0 0 0-4 4.8 5 5 0 0 0 4.52 5 24 24 0 0 0 46.96 0 5 5 0 0 0 4.52-5z" fill="#fff" stroke="#4f8d49" stroke-linecap="round" stroke-linejoin="round" stroke-width="4"/><circle cx="3" cy="3" r="3" transform="translate(128 155)" fill="#d6daff"/><circle cx="3" cy="3" r="3" transform="translate(154 155)" fill="#d6daff"/><path d="M154.8 151a3.4 3.4 0 0 0-4.8 0m-16.8 0a3.4 3.4 0 0 1 4.8 0m12 14a10 10 0 0 1-12 0" fill="none" stroke="#4f8d49" stroke-linecap="round" stroke-linejoin="round" stroke-width="4"/><path d="M176.8 153.4c-5.04-15.16-14.52-36-32.8-36.64-18.28.52-27.76 21.48-32.8 36.64a24 24 0 0 0 12.8 29.32l11.16 5.28a33.32 33.32 0 0 0-12 5.92c2.68 8 4.28 18.88 20.96 19.2 16.68-.32 18.28-11.2 20.96-19.2a33.32 33.32 0 0 0-12-5.92l10.92-5.28a24 24 0 0 0 12.8-29.32zM144 179.28c-13.2-.32-19.04-10.56-22.24-16.84-4-7.6 8.88-28 22.24-28.84 13.36.72 26.12 21.24 22.24 28.84-3.2 6.28-9.04 16.52-22.24 16.84z" fill="#fff"/><path d="M144 179.28c-13.2-.32-19.04-10.56-22.24-16.84-4-7.6 8.88-28 22.24-28.84 13.36.72 26.12 21.24 22.24 28.84-3.2 6.28-9.04 16.52-22.24 16.84zm-9.24 19.28a19 19 0 0 0 18.48 0" fill="none" stroke="#4f8d49" stroke-linecap="round" stroke-linejoin="round" stroke-width="4"/><path d="M176.8 153.4c-5.04-15.16-14.52-36-32.8-36.64-18.28.52-27.76 21.48-32.8 36.64a24 24 0 0 0 12.8 29.32l11.16 5.28a33.32 33.32 0 0 0-12 5.92c2.68 8 4.28 18.88 20.96 19.2 16.68-.32 18.28-11.2 20.96-19.2a33.32 33.32 0 0 0-12-5.92l10.92-5.28a24 24 0 0 0 12.8-29.32z" fill="none" stroke="#4f8d49" stroke-linecap="round" stroke-linejoin="round" stroke-width="4"/></g></g></svg>