<svg xmlns="http://www.w3.org/2000/svg" width="352" height="352"><defs><clipPath id="a"><path transform="translate(507 1182)" fill="#eee" d="M0 0h352v352H0z"/></clipPath></defs><g transform="translate(-507 -1182)" clip-path="url(#a)"><g transform="translate(483 1156.898)"><path d="M360 224.92a160 160 0 1 0-305.76 66h291.52a159.4 159.4 0 0 0 14.24-66z" fill="#f0f2ff"/><path stroke-width="4" stroke="#4f8d49" stroke-linecap="round" stroke-linejoin="round" fill="none" d="M44 290.92h312m-330 0h10m328 0h10"/><path d="M336 288.92h-12.36A11.68 11.68 0 0 1 312 277.28v-16.36a62 62 0 0 0-124 0v30h102.72a35.68 35.68 0 0 0 32.92 22H336z" fill="#fff"/><path d="M336 288.92h-12.36A11.68 11.68 0 0 1 312 277.28v-16.36a62 62 0 0 0-124 0v30h102.72a35.68 35.68 0 0 0 32.92 22H336z" fill="none" stroke="#4f8d49" stroke-linecap="round" stroke-linejoin="round" stroke-width="4"/><path d="M288 220.92c0-5.64-14-26-24-26h-28c-10 0-24 20.36-24 26l12 4-6 10 32 46 32-46-6-10z" fill="#fff" stroke="#4f8d49" stroke-linecap="round" stroke-linejoin="round" stroke-width="4"/><path d="M266.64 206.44L264 194.92h-28l-2.68 11.52a53.08 53.08 0 0 0 1.36 28.6L250 280.92l15.28-45.88a52.68 52.68 0 0 0 1.36-28.6z" fill="#fff" stroke="#4f8d49" stroke-linecap="round" stroke-linejoin="round" stroke-width="4"/><path stroke-width="4" stroke="#4f8d49" stroke-linecap="round" stroke-linejoin="round" fill="none" d="M250 280.92v10"/><path d="M250 222.92l16 10a52.56 52.56 0 0 0 .72-26.48L264 194.92c-2.12 10.72-5.6 20.72-14 28z" fill="#fff" stroke="#4f8d49" stroke-linecap="round" stroke-linejoin="round" stroke-width="4"/><path d="M236 186.92v8c2.12 10.72 5.6 20.72 14 28 8.4-7.28 12-17.28 14-28v-8z" fill="#fff" stroke="#4f8d49" stroke-linecap="round" stroke-linejoin="round" stroke-width="4"/><path d="M236 186.92v8c2.12 10.72 5.6 20.72 14 28 8.4-7.28 12-17.28 14-28v-8z" fill="none" stroke="#4f8d49" stroke-linecap="round" stroke-linejoin="round" stroke-width="4"/><path d="M290 144.92v-10a40 40 0 0 0-80 0v10a8 8 0 0 0 0 16h.48a40 40 0 0 0 79 0h.52a8 8 0 0 0 0-16z" fill="#fff" stroke="#4f8d49" stroke-linecap="round" stroke-linejoin="round" stroke-width="4"/><path d="M237.92 172a17.52 17.52 0 0 0 24 0" fill="none" stroke="#4f8d49" stroke-linecap="round" stroke-linejoin="round" stroke-width="4"/><circle cx="5" cy="5" r="5" transform="translate(222 156.92)" fill="#d6daff"/><circle cx="5" cy="5" r="5" transform="translate(268 156.92)" fill="#d6daff"/><path stroke-width="4" stroke="#4f8d49" stroke-linecap="round" stroke-linejoin="round" fill="none" d="M212 254.92v36"/><path d="M278 90.96c0-3.52-6.2-8-14-8h-26c-21.96 0-38 18.08-38 40a41.16 41.16 0 0 0 5.76 23.24 7.64 7.64 0 0 1 4.24-1.24 8 8 0 0 1 6 2.76 96.84 96.84 0 0 0 .36-22.16 45.4 45.4 0 0 0 14.4 2.08c20 0 43.76-9.4 43.76-20.24a61.84 61.84 0 0 0 10.72 39.12 7.954 7.954 0 0 1 9.96.4h.28c3.24 3.4 14.16-48.96-17.48-55.96z" fill="#fff"/><path d="M250 222.92l16 10a52.56 52.56 0 0 0 .72-26.48L264 194.92c-2.12 10.72-5.6 20.72-14 28zm0 0l-16 10a53 53 0 0 1-.72-26.48l2.72-11.52c2.12 10.72 5.6 20.72 14 28z" fill="#fff" stroke="#4f8d49" stroke-linecap="round" stroke-linejoin="round" stroke-width="4"/><path d="M250 222.92l-16 10a53 53 0 0 1-.72-26.48l2.72-11.52c2.12 10.72 5.6 20.72 14 28z" fill="#fff" stroke="#4f8d49" stroke-linecap="round" stroke-linejoin="round" stroke-width="4"/><path d="M250 222.92l-7.24 4.52 3.24 7.48h8l3.24-7.48z" fill="#d6daff" stroke="#4f8d49" stroke-linecap="round" stroke-linejoin="round" stroke-width="4"/><path d="M254 234.92h-8a130.518 130.518 0 0 0-3.32 24l7.32 22 7.32-22a130.518 130.518 0 0 0-3.32-24z" fill="#d6daff" stroke="#4f8d49" stroke-linecap="round" stroke-linejoin="round" stroke-width="4"/><path d="M278 90.96c0-3.52-6.2-8-14-8h-26c-21.96 0-38 18.08-38 40a41.16 41.16 0 0 0 5.76 23.24 7.64 7.64 0 0 1 4.24-1.24 8 8 0 0 1 6 2.76 96.84 96.84 0 0 0 .36-22.16 45.4 45.4 0 0 0 14.4 2.08c20 0 43.76-9.4 43.76-20.24a61.84 61.84 0 0 0 10.72 39.12 7.954 7.954 0 0 1 9.96.4h.28c3.24 3.4 14.16-48.96-17.48-55.96z" fill="none" stroke="#4f8d49" stroke-linejoin="round" stroke-width="4"/><path d="M250 136.92h-40v16c0 6 14 10 22 10a13.44 13.44 0 0 0 12.92-8.68 5.516 5.516 0 0 1 10.12 0 13.44 13.44 0 0 0 12.96 8.68c8 0 22-4 22-10v-16z" fill="#fff"/><path d="M272 148.92a6.52 6.52 0 0 0-12 0m-20 0a6.52 6.52 0 0 0-12 0" fill="none" stroke="#4f8d49" stroke-linecap="round" stroke-linejoin="round" stroke-width="4"/><path d="M250 136.92h-40v16c0 6 14 10 22 10a13.44 13.44 0 0 0 12.92-8.68 5.516 5.516 0 0 1 10.12 0 13.44 13.44 0 0 0 12.96 8.68c8 0 22-4 22-10v-16z" fill="none" stroke="#4f8d49" stroke-linecap="round" stroke-linejoin="round" stroke-width="4"/><path d="M299.24 136.92H290v8h7.36a36.961 36.961 0 0 0 1.88-8zm-98.52 0H210v8h-7.4a42.4 42.4 0 0 1-1.88-8z" fill="#fff" stroke="#4f8d49" stroke-linecap="round" stroke-linejoin="round" stroke-width="4"/><circle cx="6" cy="6" r="6" transform="translate(334 248.92)" fill="#d6daff" stroke="#4f8d49" stroke-linecap="round" stroke-linejoin="round" stroke-width="4"/><circle cx="4" cy="4" r="4" transform="translate(354 246.92)" fill="#d6daff" stroke="#4f8d49" stroke-linecap="round" stroke-linejoin="round" stroke-width="4"/><circle cx="4" cy="4" r="4" transform="translate(344 220.92)" fill="#d6daff" stroke="#4f8d49" stroke-linecap="round" stroke-linejoin="round" stroke-width="4"/><path d="M122 294.92a8 8 0 0 1-16 0v-62a4 4 0 0 1 4-4h8a4 4 0 0 1 4 4z" fill="#fff" stroke="#4f8d49" stroke-linecap="round" stroke-linejoin="round" stroke-width="4"/><ellipse cx="60" cy="6" rx="60" ry="6" transform="translate(82 310.92)" fill="#f0f2ff"/><path d="M90 254.92h2a4 4 0 0 1 4 4v54h-6a4 4 0 0 1-4-4v-50a4 4 0 0 1 4-4zm102 0h2a4 4 0 0 1 4 4v50a4 4 0 0 1-4 4h-6v-54a4 4 0 0 1 4-4z" fill="#fff" stroke="#4f8d49" stroke-linecap="round" stroke-linejoin="round" stroke-width="4"/><path stroke-width="4" stroke="#4f8d49" stroke-linecap="round" stroke-linejoin="round" fill="#d6daff" d="M96 302.92h92v10H96z"/><path d="M122 294.92a8 8 0 0 1-16 0v-50h16z" fill="#d6daff" stroke="#4f8d49" stroke-linecap="round" stroke-linejoin="round" stroke-width="4"/><path d="M150 294.92a8 8 0 0 1-16 0v-62a4 4 0 0 1 4-4h8a4 4 0 0 1 4 4z" fill="#fff" stroke="#4f8d49" stroke-linecap="round" stroke-linejoin="round" stroke-width="4"/><path d="M150 294.92a8 8 0 0 1-16 0v-50h16z" fill="#d6daff" stroke="#4f8d49" stroke-linecap="round" stroke-linejoin="round" stroke-width="4"/><path d="M178 294.92a8 8 0 0 1-16 0v-62a4 4 0 0 1 4-4h8a4 4 0 0 1 4 4z" fill="#fff" stroke="#4f8d49" stroke-linecap="round" stroke-linejoin="round" stroke-width="4"/><path d="M178 294.92a8 8 0 0 1-16 0v-50h16z" fill="#d6daff" stroke="#4f8d49" stroke-linecap="round" stroke-linejoin="round" stroke-width="4"/><path stroke-width="4" stroke="#4f8d49" stroke-linecap="round" stroke-linejoin="round" fill="#fff" d="M96 264.92h92v8H96z"/><path d="M288 254.92v22.36a35.16 35.16 0 0 0 2.72 13.64" fill="none" stroke="#4f8d49" stroke-linecap="round" stroke-linejoin="round" stroke-width="4"/><path d="M338.24 298.08l9.76-15.04a4 4 0 0 0-1.12-5.56l-6.72-4.36a4 4 0 0 0-5.52 1.16l-9.88 15.08-25.44 18.04a8 8 0 0 0 .24 13.24l20 13.12a8 8 0 0 0 12.44-5.12z" fill="#fff"/><path d="M296.6 310.92a8 8 0 0 0 3.04 9.72l20 13.12a8 8 0 0 0 12.36-5.12l3.68-17.72z" fill="#d6daff"/><path d="M338.24 298.08l9.76-15.04a4 4 0 0 0-1.12-5.56l-6.72-4.36a4 4 0 0 0-5.52 1.16l-9.88 15.08-25.44 18.04a8 8 0 0 0 .24 13.24l20 13.12a8 8 0 0 0 12.44-5.12z" fill="none" stroke="#4f8d49" stroke-linecap="round" stroke-linejoin="round" stroke-width="4"/><path d="M336.4 317.36l-8.88-4a5.96 5.96 0 0 1-3-8l4.92-10.92a6 6 0 0 1 8-3l8.88 4a8 8 0 0 1 4.44 9.36 40.279 40.279 0 0 1-4.36 9.64 8 8 0 0 1-10 2.92z" fill="#fff"/><path d="M336.4 317.36l-8.88-4a5.96 5.96 0 0 1-3-8l4.92-10.92a6 6 0 0 1 8-3l8.88 4a8 8 0 0 1 4.44 9.36 40.279 40.279 0 0 1-4.36 9.64 8 8 0 0 1-10 2.92z" fill="none" stroke="#4f8d49" stroke-linecap="round" stroke-linejoin="round" stroke-width="4"/></g></g></svg>